<?xml version="1.0" encoding="utf-8"?>
<!-- Generator: Adobe Illustrator 16.0.0, SVG Export Plug-In . SVG Version: 6.00 Build 0)  -->
<!DOCTYPE svg PUBLIC "-//W3C//DTD SVG 1.1//EN" "http://www.w3.org/Graphics/SVG/1.1/DTD/svg11.dtd">
<svg xmlns="http://www.w3.org/2000/svg" xmlns:xlink="http://www.w3.org/1999/xlink" version="1.1" id="Furniture_x5F_Armchair" x="0px" y="0px" width="512" height="512" viewBox="0 0 144.083 144" enable-background="new 0 0 144.083 144" xml:space="preserve">
<path d="M104.781,49.354v-2.919c0-7.358-5.986-13.345-13.344-13.345H51.384c-7.358,0-13.344,5.986-13.344,13.345v3.119  c-5.919,1.248-10.377,6.51-10.377,12.795v37.067c0,1.658,1.343,3,3,3h8.283l-0.57,8.072l5.985,0.422l0.6-8.494h52.901l0.599,8.494  l5.984-0.422l-0.568-8.072h9.543c1.657,0,3-1.342,3-3V62.349C116.419,55.625,111.317,50.074,104.781,49.354z M51.384,39.09h40.053  c4.05,0,7.344,3.295,7.344,7.345v3.671c-4.967,1.856-8.52,6.637-8.52,12.243v16.065h-36.44V62.349c0-6.07-4.164-11.174-9.781-12.641  v-3.273C44.04,42.385,47.334,39.09,51.384,39.09z M110.419,96.416H33.663V62.349c0-3.903,3.175-7.079,7.078-7.079  c3.904,0,7.08,3.176,7.08,7.079v19.065c0,1.656,1.343,3,3,3h42.44c1.657,0,3-1.344,3-3V62.349c0-3.903,3.175-7.079,7.078-7.079  c3.904,0,7.08,3.176,7.08,7.079V96.416z"/>
</svg>
