<?xml version="1.0" encoding="iso-8859-1"?>
<!-- Generator: Adobe Illustrator 19.0.0, SVG Export Plug-In . SVG Version: 6.00 Build 0)  -->
<svg version="1.1" id="Capa_1" xmlns="http://www.w3.org/2000/svg" xmlns:xlink="http://www.w3.org/1999/xlink" x="0px" y="0px"
	 viewBox="0 0 215.04 215.04" style="enable-background:new 0 0 215.04 215.04;" xml:space="preserve">
<g>
	<g>
		<path d="M141.747,71.163C137.58,32.22,127.887,2.635,127.79,2.34C127.328,0.944,126.02,0,124.549,0H72.902
			c-1.169,0-2.256,0.599-2.883,1.587c-0.628,0.986-0.703,2.227-0.205,3.284c0.058,0.125,5.912,12.587,9.974,26.276
			c4.973,16.761,5.192,28.131,0.616,32.012c-23.888,20.262-30.244,37.955-18.891,52.586c13.418,17.294,25.337,36.048,21.722,55.999
			c-3.9,21.524,6.665,32.828,8.721,34.79c1.183,1.539,5.81,6.692,14.804,6.692c10.144,0,15.048-10.663,15.792-12.438
			C145.403,158.938,145.606,107.209,141.747,71.163z M116.47,197.68c-0.067,0.123-0.131,0.259-0.183,0.391
			c-0.032,0.082-3.379,8.329-9.528,8.329c-6.526,0-9.3-3.889-9.388-4.016c-0.174-0.266-0.384-0.507-0.625-0.715
			c-0.102-0.089-10.325-9.202-6.794-28.708c4.093-22.586-8.658-42.858-23.045-61.399c-8.817-11.366-2.958-25.496,17.913-43.197
			c7.071-5.994,7.559-18.828,1.493-39.231c-2.672-8.991-6.008-17.295-8.154-22.304h43.871
			C127.075,23.593,155.469,126.484,116.47,197.68z"/>
	</g>
</g>
<g>
	<g>
		<path d="M142.28,82.842L92.785,36.439l37.441-5.76c1.862-0.287,3.14-2.028,2.854-3.891c-0.287-1.865-2.031-3.139-3.893-2.855
			l-44.373,6.827c-1.29,0.198-2.354,1.118-2.741,2.364c-0.386,1.249-0.027,2.608,0.927,3.5l50.435,47.283l-29.286,9.762
			c-1.789,0.596-2.755,2.529-2.159,4.318c0.476,1.43,1.809,2.335,3.238,2.335c0.358,0,0.724-0.056,1.08-0.177l34.719-11.573
			c1.14-0.381,1.997-1.333,2.255-2.509C143.538,84.886,143.157,83.663,142.28,82.842z"/>
	</g>
</g>
<g>
	<g>
		<path d="M133.373,168.791c-14.63-12.565-17.585-31.171-20.714-50.869c-1.154-7.262-2.347-14.771-4.169-21.984
			c-3.203-12.677-11.056-23.895-23.34-33.345c-1.345-1.038-3.251-0.923-4.468,0.265c-0.099,0.099-0.196,0.201-0.276,0.3
			c-23.888,20.262-30.244,37.955-18.891,52.586c13.418,17.295,25.335,36.05,21.722,55.999c-3.9,21.524,6.665,32.828,8.721,34.79
			c1.183,1.539,5.81,6.692,14.804,6.692c10.144,0,15.048-10.663,15.79-12.436c4.669-8.552,8.658-18.106,11.856-28.396
			C134.811,171.095,134.405,169.678,133.373,168.791z M116.47,197.68c-0.067,0.123-0.131,0.259-0.183,0.391
			c-0.032,0.082-3.379,8.329-9.528,8.329c-6.526,0-9.3-3.889-9.388-4.016c-0.174-0.266-0.384-0.507-0.625-0.715
			c-0.102-0.089-10.325-9.202-6.794-28.708c4.091-22.584-8.658-42.856-23.045-61.399c-8.583-11.064-3.255-24.752,16.287-41.798
			c9.774,8.098,16.053,17.454,18.676,27.851c1.746,6.912,2.915,14.268,4.045,21.381c3.072,19.342,6.246,39.322,21.311,53.453
			C124.257,181.579,120.644,190.058,116.47,197.68z"/>
	</g>
</g>
<g>
	<g>
		<path d="M208.213,208.213H75.093c-1.884,0-3.413,1.529-3.413,3.413s1.529,3.413,3.413,3.413h133.12
			c1.884,0,3.413-1.529,3.413-3.413S210.098,208.213,208.213,208.213z"/>
	</g>
</g>
<g>
	<g>
		<path d="M54.613,208.213H6.827c-1.884,0-3.413,1.529-3.413,3.413s1.529,3.413,3.413,3.413h47.787c1.884,0,3.413-1.529,3.413-3.413
			S56.497,208.213,54.613,208.213z"/>
	</g>
</g>
<g>
</g>
<g>
</g>
<g>
</g>
<g>
</g>
<g>
</g>
<g>
</g>
<g>
</g>
<g>
</g>
<g>
</g>
<g>
</g>
<g>
</g>
<g>
</g>
<g>
</g>
<g>
</g>
<g>
</g>
</svg>
