<?xml version="1.0" encoding="iso-8859-1"?>
<!-- Generator: Adobe Illustrator 18.0.0, SVG Export Plug-In . SVG Version: 6.00 Build 0)  -->
<!DOCTYPE svg PUBLIC "-//W3C//DTD SVG 1.1//EN" "http://www.w3.org/Graphics/SVG/1.1/DTD/svg11.dtd">
<svg version="1.1" id="Capa_1" xmlns="http://www.w3.org/2000/svg" xmlns:xlink="http://www.w3.org/1999/xlink" x="0px" y="0px"
	 viewBox="0 0 453.832 453.832" style="enable-background:new 0 0 453.832 453.832;" xml:space="preserve">
<path d="M447.654,298.532c-8.02-8.02-20.83-8.318-29.161-0.68c-15.838,14.521-33.116,27.054-51.471,37.494l-15.25-44.172
	c-4.114-11.918-3.598-24.845,1.475-36.444c8.516-18.461,10.399-39.362,5.303-58.852c-0.164-0.627-0.506-1.934-3.853-10.606
	c-3.157-8.181,0.665-17.353,8.701-20.881c7.803-3.426,16.796-0.385,20.918,7.075l2.762,4.998c3.027,5.478,8.018,9.403,14.054,11.055
	c6.037,1.652,12.332,0.814,17.725-2.359c14.761-8.683,20.324-27.483,12.665-42.8l-21.482-42.964
	c-4.837-9.675-11.909-18.298-20.457-24.942l-0.063-0.048c-3.815-2.979-6.085-7.459-6.228-12.294l-0.458-15.569
	c-0.08-2.706-1.611-5.159-4.008-6.419c-2.396-1.26-5.286-1.129-7.56,0.34l-36.448,23.558c-30.655,19.813-52.214,51.73-59.15,87.565
	l-1.912,9.875c-1.045,5.398-4.372,10.076-9.128,12.834c-4.756,2.759-10.468,3.322-15.672,1.549l-31.232-10.648
	c-13.407-4.57-27.857-5.629-41.801-3.059l-0.504,0.094c-7.279,1.349-14.563-2.101-18.127-8.588
	c-11.622-21.152-30.875-36.188-54.212-42.338c-23.336-6.15-47.5-2.555-68.037,10.121l-9.644,5.953
	c-2.441,1.507-3.809,4.274-3.523,7.128l0.897,8.974c2.804,28.042,20.681,52.256,46.655,63.192c3.787,1.595,8.15-0.154,9.789-3.922
	l10.725-24.667c3.47-7.98,12.792-11.667,20.781-8.216c4.034,1.742,7.084,4.974,8.59,9.103c1.506,4.128,1.253,8.566-0.712,12.497
	c-9.159,18.316-11.512,39.357-6.628,59.246c1.338,5.447,0.366,11.02-2.736,15.693c-3.102,4.672-7.861,7.731-13.4,8.612
	l-14.676,2.335c-2.82,0.449-5.142,2.46-5.986,5.189l-11.742,37.937c-9.774-6.906-19.165-14.447-28.091-22.631
	c-8.331-7.638-21.141-7.34-29.161,0.68c-4.108,4.108-6.3,9.569-6.173,15.377c0.125,5.756,2.638,11.293,6.893,15.192
	c28.681,26.279,61.431,46.993,97.34,61.568c39.072,15.859,80.347,23.9,122.678,23.9c42.331,0,83.605-8.041,122.678-23.9
	c35.908-14.574,68.658-35.289,97.339-61.568c4.255-3.899,6.768-9.436,6.893-15.192C453.954,308.101,451.762,302.64,447.654,298.532z
	 M76.503,328.981l11.621-37.544l10.069-1.602c9.589-1.525,18.169-7.04,23.54-15.129c5.371-8.09,7.123-18.138,4.807-27.568
	c-4.037-16.436-2.092-33.823,5.477-48.96c3.829-7.656,4.321-16.302,1.388-24.344c-2.933-8.042-8.877-14.34-16.736-17.733
	c-15.564-6.722-33.724,0.459-40.483,16.006l-7.592,17.462c-17.268-9.845-28.886-27.491-30.894-47.578l-0.431-4.308l5.654-3.49
	c17.004-10.497,37.009-13.474,56.336-8.38c19.324,5.092,35.265,17.542,44.888,35.057c6.688,12.172,20.357,18.646,34.013,16.112
	l0.495-0.092c11.412-2.104,23.249-1.237,34.231,2.507l31.232,10.647c9.31,3.175,19.529,2.165,28.038-2.77s14.46-13.303,16.33-22.96
	l1.912-9.875c6.164-31.846,25.323-60.21,52.566-77.818l25.271-16.334l0.067,2.266c0.273,9.312,4.644,17.941,12.009,23.692
	l0.075,0.058c6.782,5.271,12.397,12.119,16.239,19.801l21.482,42.964c4.145,8.29,1.134,18.464-6.854,23.164
	c-1.875,1.102-4.062,1.394-6.16,0.82c-2.098-0.574-3.833-1.938-4.884-3.842l-2.762-4.998c-7.897-14.291-25.125-20.119-40.077-13.554
	c-15.395,6.759-22.715,24.335-16.665,40.015c2.819,7.304,3.277,8.799,3.334,9c4.219,16.138,2.652,33.459-4.415,48.779l-0.141,0.313
	c-6.565,15.015-7.236,31.814-1.889,47.303l16.034,46.444c-6.728,3.362-13.591,6.433-20.559,9.244l-32.979-70.559
	c-4.271-9.139-14.029-14.717-24.179-13.664c-8.129,0.855-16.414,1.289-24.625,1.289c-20.924,0-41.777-2.791-61.979-8.296
	c-3.132-0.853-6.459,0.406-8.241,3.12l-10.938,16.656c-3.37,5.125-7.59,9.536-12.542,13.109c-4.985,3.597-10.497,6.22-16.381,7.797
	c-14.436,3.865-27.204,12.667-35.95,24.783l-10.07,13.94c-6.581-3.454-13.03-7.177-19.339-11.154L76.503,328.981z M318.969,357.016
	c-29.33,10.048-60.379,15.3-92.052,15.3c-41.219,0-81.381-8.889-118.066-25.687l8.565-11.856c6.732-9.326,16.559-16.1,27.67-19.075
	c7.652-2.05,14.811-5.456,21.278-10.123c6.438-4.646,11.921-10.375,16.3-17.035l7.986-12.162
	c19.829,4.942,40.199,7.445,60.635,7.445c8.733,0,17.547-0.461,26.183-1.37c0.32-0.033,0.645-0.05,0.967-0.05
	c3.439,0,6.604,2.02,8.065,5.146L318.969,357.016z M436.8,318.042c-27.36,25.069-58.599,44.828-92.847,58.729
	c-37.272,15.128-76.649,22.798-117.037,22.798c-40.389,0-79.765-7.67-117.037-22.798c-34.25-13.901-65.488-33.66-92.848-58.729
	c-1.272-1.166-1.993-2.749-2.03-4.46c-0.037-1.678,0.597-3.256,1.784-4.443c1.205-1.206,2.779-1.813,4.349-1.813
	c1.459,0,2.916,0.525,4.069,1.583c55.15,50.562,126.787,78.408,201.713,78.408s146.563-27.846,201.713-78.408
	c2.395-2.196,6.093-2.095,8.418,0.23c1.187,1.187,1.82,2.765,1.783,4.443C438.793,315.292,438.072,316.876,436.8,318.042z"/>
<g>
</g>
<g>
</g>
<g>
</g>
<g>
</g>
<g>
</g>
<g>
</g>
<g>
</g>
<g>
</g>
<g>
</g>
<g>
</g>
<g>
</g>
<g>
</g>
<g>
</g>
<g>
</g>
<g>
</g>
</svg>
